# xmcd
#
# Track frame offsets: 
#        150
#        13087
#        31702
#        49480
#        66945
#        82202
#        109282
#        126400
#        144820
#        164497
#        193255
#        216662
#        235347
#        251622
#        273962
#        283152
#        303102
#        313457
#        328837
#
# Disc length: 4702 seconds
#
# Revision: 3
# Processed by: cddbd v1.5.2PL0 Copyright (c) Steve Scherf et al.
# Submitted via: ExactAudioCopy v1.0b3
#
DISCID=31125c13
DTITLE=Hans Theessink - blue grooves from vienna
DYEAR=1998
DGENRE=Blues
TTITLE0=Johnny and The Devil
TTITLE1=Baby Wants To Boogie
TTITLE2=Living In The Fast Lane
TTITLE3=Darkest Hour
TTITLE4=Nobodys Fault But Mine
TTITLE5=Mississippi
TTITLE6=Travelling Man
TTITLE7=Dough Roller Blues
TTITLE8=Rivers Invitation
TTITLE9=Titanic
TTITLE10=Stones In My Passway
TTITLE11=When Things Go Wrong
TTITLE12=Down Where The Drunkards Roll
TTITLE13=Sidewalk Hobo
TTITLE14=Cajun Boogie
TTITLE15=Rain
TTITLE16=Nashville Picking
TTITLE17=Blue Blood
TTITLE18=Lazy
EXTD=
EXTT0=
EXTT1=
EXTT2=
EXTT3=
EXTT4=
EXTT5=
EXTT6=
EXTT7=
EXTT8=
EXTT9=
EXTT10=
EXTT11=
EXTT12=
EXTT13=
EXTT14=
EXTT15=
EXTT16=
EXTT17=
EXTT18=
PLAYORDER=
